# xmcd
#
# Track frame offsets: 
#        150
#        14217
#        26715
#        90575
#        116430
#        140905
#
# Disc length: 2312 seconds
#
# Revision: 4
# Processed by: cddbd v1.5.2PL0 Copyright (c) Steve Scherf et al.
# Submitted via: ExactAudioCopy v0.99pb5
#
DISCID=51090606
DTITLE=B.B. King - ''Now Appearing'' At Ole Miss [CD1)
DYEAR=1980
DGENRE=Blues
TTITLE0=Intro - B.B. King Blues Theme
TTITLE1=Caldonia
TTITLE2=Blues Medley
TTITLE3=Hold On
TTITLE4=I Got Some Outside Help (I Don't Really Need)
TTITLE5=Darlin' You Know I Love You
EXTD=
EXTT0=
EXTT1=
EXTT2=
EXTT3=
EXTT4=
EXTT5=
PLAYORDER=
